<svg xmlns="http://www.w3.org/2000/svg" fill="none" viewBox="0 0 54 48"><path stroke="#D9DADA" stroke-linecap="round" stroke-linejoin="round" stroke-width=".5" d="M43.94 9.09H9.91c-.89 0-1.61.72-1.61 1.61v26.61c0 .89.72 1.61 1.61 1.61h34.03c.89 0 1.61-.72 1.61-1.61V10.7c0-.89-.72-1.61-1.61-1.61Z"/><path fill="#D9DADA" d="M8.26 36.88c0-.12.05-.24.14-.33l10-9.88a1 1 0 0 1 1.23 0L24 30.44c.17.15.43.15.6 0l8-7.34a1 1 0 0 1 1.3 0l11.5 11.28c.09.08.14.2.14.32v2a2.16 2.16 0 0 1-2.17 2.17h-33a2.08 2.08 0 0 1-2.08-2l-.03.01ZM23.06 23.72a2.8 2.8 0 1 0 0-5.6 2.8 2.8 0 0 0 0 5.6Z"/></svg>
