<svg id="Layer_1" data-name="Layer 1" xmlns="http://www.w3.org/2000/svg" viewBox="0 0 25 25"><defs><style>.cls-1{fill:#ee4b2a;}.cls-1,.cls-2{fill-rule:evenodd;}.cls-2{fill:#fff;}</style></defs><path class="cls-1" d="M12.5,0A12.5,12.5,0,1,1,0,12.5,12.5,12.5,0,0,1,12.5,0" transform="translate(0 0)"/><path class="cls-2" d="M5.1,8.39A1.2,1.2,0,0,1,6.29,7.2H18.71a1.18,1.18,0,0,1,1.17,1L12.22,12.6Zm0,8.22V9.9l7.12,3.95L19.88,9.6l0,0v7a1.2,1.2,0,0,1-1.19,1.19H6.29A1.2,1.2,0,0,1,5.1,16.61Z" transform="translate(0 0)"/></svg>