<svg xmlns="http://www.w3.org/2000/svg" viewBox="0 0 322.5 227.1" xmlns:v="https://vecta.io/nano"><path d="M292.6 227.1H29.9C13.4 227.1 0 213.7 0 197.2V29.9C0 13.4 13.4 0 29.9 0h262.8c16.5 0 29.9 13.4 29.9 29.9v167.3c-.1 16.5-13.5 29.9-30 29.9z" fill="#36495d"/><path d="M134.2 64.9h54.2v97.4h-54.2z" fill="#f16522"/><path d="M137.6 113.6c0-19.8 9.3-37.3 23.7-48.7-10.5-8.3-23.8-13.2-38.3-13.2-34.2 0-61.9 27.7-61.9 61.9s27.7 61.9 61.9 61.9a61.9 61.9 0 0 0 38.3-13.2c-14.4-11.4-23.7-29-23.7-48.7" fill="#e41b24"/><path d="M261.4 113.6c0 34.2-27.7 61.9-61.9 61.9a61.9 61.9 0 0 1-38.3-13.2c14.4-11.3 23.6-28.9 23.6-48.7s-9.2-37.3-23.6-48.7c10.5-8.3 23.8-13.2 38.3-13.2 34.2-.1 61.9 27.7 61.9 61.9m-5.9 38.3v-2h.8v-.4h-2v.4h.8v2h.4zm4 0v-2.4h-.6l-.7 1.7-.7-1.7h-.6v2.4h.4v-1.8l.7 1.6h.5l.7-1.6v1.8h.3z" fill="#f89e1c"/></svg>