<svg xmlns="http://www.w3.org/2000/svg" viewBox="0 0 322.5 227.1" xmlns:v="https://vecta.io/nano"><path d="M292.6 227.1H29.9C13.4 227.1 0 213.7 0 197.2V29.9C0 13.4 13.4 0 29.9 0h262.8c16.5 0 29.9 13.4 29.9 29.9v167.3c-.1 16.5-13.5 29.9-30 29.9z" fill="#253b80"/><path d="M77.4 99.9c-1 6.3-5.8 6.3-10.4 6.3h-2.7l1.9-11.8c.1-.7.7-1.2 1.4-1.2h1.2c3.2 0 6.2 0 7.7 1.8 1 1.1 1.3 2.7.9 4.9zm-2-16.4H57.8c-1.2 0-2.2.9-2.4 2.1l-7.1 45.1c-.1.9.5 1.7 1.4 1.7h8.4c1.2 0 2.2-.9 2.4-2.1l1.9-12.2c.2-1.2 1.2-2.1 2.4-2.1h5.6c11.6 0 18.3-5.6 20-16.7.8-4.9 0-8.7-2.2-11.3-2.5-3-6.9-4.5-12.8-4.5zm40.8 32.6c-.8 4.8-4.6 8-9.5 8-2.4 0-4.4-.8-5.6-2.3s-1.7-3.6-1.3-5.9c.8-4.8 4.6-8.1 9.4-8.1 2.4 0 4.3.8 5.6 2.3 1.3 1.6 1.8 3.7 1.4 6zm11.7-16.4h-8.4c-.7 0-1.3.5-1.4 1.2l-.4 2.4-.6-.9c-1.8-2.6-5.9-3.5-9.9-3.5-9.3 0-17.2 7-18.8 16.9-.8 4.9.3 9.6 3.1 12.9 2.6 3 6.2 4.3 10.6 4.3 7.5 0 11.6-4.8 11.6-4.8l-.4 2.3c-.1.9.5 1.7 1.4 1.7h7.6c1.2 0 2.2-.9 2.4-2.1l4.5-28.8c.3-.8-.4-1.6-1.3-1.6zm44.9 0h-8.5c-.8 0-1.6.4-2 1.1L150.6 118l-4.9-16.5c-.3-1-1.3-1.7-2.3-1.7H135c-1 0-1.7 1-1.4 1.9l9.3 27.3-8.8 12.4c-.7 1 0 2.3 1.2 2.3h8.4c.8 0 1.6-.4 2-1L174 102c.6-1-.1-2.3-1.2-2.3zm30 .2c-1 6.3-5.8 6.3-10.4 6.3h-2.6l1.9-11.8c.1-.7.7-1.2 1.4-1.2h1.2c3.2 0 6.2 0 7.7 1.8.8 1.1 1.1 2.7.8 4.9zm-2.1-16.4h-17.6c-1.2 0-2.2.9-2.4 2.1l-7.1 45.1c-.1.9.5 1.7 1.4 1.7h9c.8 0 1.6-.6 1.7-1.4l2-12.8c.2-1.2 1.2-2.1 2.4-2.1h5.6c11.6 0 18.3-5.6 20-16.7.8-4.9 0-8.7-2.2-11.3-2.4-3.1-6.9-4.6-12.8-4.6zm40.8 32.6c-.8 4.8-4.6 8-9.5 8-2.4 0-4.4-.8-5.6-2.3s-1.7-3.6-1.3-5.9c.8-4.8 4.6-8.1 9.4-8.1 2.4 0 4.3.8 5.6 2.3 1.3 1.6 1.8 3.7 1.4 6zm11.8-16.4h-8.4c-.7 0-1.3.5-1.4 1.2l-.4 2.4-.6-.9c-1.8-2.6-5.9-3.5-9.9-3.5-9.3 0-17.2 7-18.8 16.9-.8 4.9.3 9.6 3.1 12.9 2.6 3 6.2 4.3 10.6 4.3 7.5 0 11.6-4.8 11.6-4.8l-.4 2.3c-.1.9.5 1.7 1.4 1.7h7.6c1.2 0 2.2-.9 2.4-2.1l4.6-28.8c.2-.8-.5-1.6-1.4-1.6zm9.9-15l-7.2 45.9c-.1.9.5 1.7 1.4 1.7h7.3c1.2 0 2.2-.9 2.4-2.1l7.1-45.1c.1-.9-.5-1.7-1.4-1.7h-8.1c-.8.1-1.4.6-1.5 1.3z" fill="#fff"/></svg>