<?xml version="1.0" encoding="utf-8"?>
<!-- Generator: Adobe Illustrator 25.0.1, SVG Export Plug-In . SVG Version: 6.00 Build 0)  -->
<svg version="1.1" id="Layer_1" xmlns="http://www.w3.org/2000/svg" xmlns:xlink="http://www.w3.org/1999/xlink" x="0px" y="0px"
	 viewBox="0 0 23.3 30" style="enable-background:new 0 0 23.3 30;" xml:space="preserve">
<style type="text/css">
	.st0{fill:#FF0000;}
</style>
<g>
	<g>
		<path class="st0" d="M0,15c0-3.7,0-7.3,0-11c0-0.7,0-1.4,0-2.2C0,1,0.5,0.3,1.3,0.1c0.1,0,0.3,0,0.4,0c4.8,0,9.5,0,14.3,0
			c0.5,0,0.8,0.1,1.1,0.4c1.7,1.7,3.5,3.5,5.2,5.2c0.3,0.3,0.6,0.6,0.9,0.9c0.1,0.1,0.1,0.2,0.1,0.3c0,2.2,0,4.3,0,6.4
			c0,5,0,9.9,0,14.8c0,0.7-0.3,1.2-0.9,1.5c-0.2,0.1-0.4,0.1-0.6,0.1c-3.6,0-7.3,0-10.9,0c-3.1,0-6.2,0-9.2,0
			c-0.8,0-1.5-0.7-1.5-1.5c0-1.6,0-3.3,0-4.9c0-1.8,0-3.5,0-5.2C0,17.1,0,16.1,0,15L0,15z M1.6,15L1.6,15c0,2.2,0,4.5,0,6.7
			c0,2.1,0,4.3,0,6.4c0,0.2,0.1,0.2,0.2,0.2c6.6,0,13.1,0,19.7,0c0.2,0,0.2-0.1,0.2-0.2c0-1.5,0-3,0-4.5c0-2.9,0-5.9,0-8.8
			c0-2.1,0-4.1,0-6.2c0-0.2,0-0.2-0.2-0.2c-1.6,0-3.1,0-4.7,0c-0.2,0-0.4,0-0.6-0.1C15.4,8.1,15,7.5,15,6.7c0-1.6,0-3.2,0-4.7
			c0-0.2-0.1-0.2-0.2-0.2c-0.6,0-1.1,0-1.7,0c-3.8,0-7.5,0-11.3,0c-0.2,0-0.2,0-0.2,0.2c0,0.4,0,0.8,0,1.3C1.6,7.1,1.6,11.1,1.6,15z
			 M21,6.8c0-0.1-0.1-0.1-0.1-0.2c-1.4-1.4-2.7-2.7-4.1-4.1c0,0-0.1-0.1-0.2-0.1c0,0.1,0,0.2,0,0.2c0,1.3,0,2.6,0,4
			c0,0.2,0.1,0.2,0.2,0.2c1.3,0,2.6,0,3.9,0C20.9,6.8,20.9,6.8,21,6.8z"/>
	</g>
	<g>
		<path class="st0" d="M15.3,16.2c0.6,0,1.2,0.1,1.8,0.1c0.5,0.1,1,0.2,1.5,0.4c0.4,0.1,0.8,0.4,1.2,0.7c0.4,0.3,0.5,1,0.3,1.4
			c-0.1,0.3-0.3,0.5-0.6,0.7c-0.6,0.4-1.3,0.4-2,0.2c-0.5-0.1-0.9-0.3-1.3-0.5c-0.5-0.3-0.9-0.7-1.3-1c-0.2-0.2-0.5-0.5-0.7-0.7
			c-0.1,0-0.1-0.1-0.2-0.1c-0.5,0-1,0.1-1.5,0.2c-0.3,0-0.6,0.1-0.9,0.1c-0.4,0.1-0.9,0.1-1.4,0.2c-0.3,0.1-0.7,0.2-1,0.3
			c-0.1,0-0.2,0.1-0.3,0.2c-0.2,0.4-0.5,0.9-0.8,1.3c-0.2,0.3-0.4,0.6-0.6,0.9C7.3,21,7,21.4,6.7,21.8c-0.2,0.3-0.5,0.5-0.8,0.8
			c-0.5,0.4-1.1,0.6-1.8,0.5c-0.3-0.1-0.6-0.3-0.8-0.6c-0.2-0.4-0.2-0.8-0.1-1.2s0.3-0.8,0.6-1.1c0.2-0.2,0.3-0.4,0.4-0.5
			c0.3-0.2,0.5-0.5,0.8-0.7c0.2-0.2,0.5-0.4,0.7-0.5c0.1-0.1,0.2-0.1,0.3-0.2c0.4-0.2,0.7-0.4,1.1-0.5c0.3-0.1,0.5-0.2,0.8-0.3
			c0.1,0,0.1-0.1,0.1-0.1c0.1-0.3,0.3-0.5,0.4-0.8C8.7,16.2,8.9,16,9,15.8c0.1-0.1,0.1-0.2,0.2-0.4c0.2-0.5,0.4-0.9,0.6-1.4
			c0.1-0.3,0.3-0.6,0.4-0.9c0,0,0-0.1,0-0.1c-0.2-0.4-0.4-0.7-0.6-1.1c-0.1-0.3-0.2-0.5-0.3-0.8C9,10.1,9,9.2,9.1,8.2
			C9.2,7.7,9.4,7.3,9.8,7c0.5-0.4,1-0.6,1.6-0.3c0.2,0.1,0.3,0.3,0.4,0.5c0.3,0.4,0.3,0.9,0.4,1.3c0.1,0.5,0.1,1,0.1,1.5
			c0,0.4-0.1,0.9-0.2,1.3c-0.1,0.4-0.2,0.7-0.3,1.1c0,0.1-0.1,0.1-0.1,0.2c0,0.1-0.1,0.2,0.1,0.3c0.2,0.2,0.3,0.4,0.5,0.6
			c0.3,0.4,0.7,0.8,1,1.2c0.1,0.2,0.3,0.3,0.4,0.5c0.1,0.2,0.3,0.4,0.5,0.5c0.1,0.1,0.3,0.3,0.4,0.4c0.1,0,0.1,0.1,0.2,0.1
			C14.9,16.3,15.1,16.3,15.3,16.2C15.3,16.3,15.3,16.3,15.3,16.2z M12.9,16.3c-0.1-0.2-0.2-0.3-0.3-0.4c-0.3-0.3-0.5-0.6-0.8-0.9
			c-0.2-0.2-0.4-0.5-0.6-0.7c-0.1-0.1-0.2-0.1-0.2,0c0,0.1-0.1,0.2-0.1,0.3c-0.3,0.6-0.5,1.1-0.8,1.7c-0.1,0.1-0.1,0.3-0.2,0.5
			c0,0,0,0.1-0.1,0.1c0.1,0,0.1,0,0.1,0c0.2,0,0.4-0.1,0.5-0.1c0.6-0.1,1.3-0.2,1.9-0.3C12.6,16.4,12.8,16.4,12.9,16.3z M7,19.2
			C7,19.1,7,19.1,7,19.2c-0.1,0-0.2,0-0.2,0c-0.3,0.2-0.6,0.4-0.8,0.5c-0.3,0.2-0.5,0.4-0.8,0.7c-0.2,0.2-0.3,0.3-0.4,0.5
			c-0.2,0.2-0.3,0.5-0.4,0.7c-0.1,0.2,0,0.2,0.2,0.2c0.2,0,0.4-0.1,0.5-0.2c0.4-0.3,0.7-0.6,1-1c0.3-0.4,0.6-0.8,0.9-1.2
			C7,19.3,7,19.2,7,19.2z M11.1,9.4c0-0.4-0.1-0.6-0.1-0.9c0-0.2-0.1-0.4-0.1-0.6c0-0.1-0.1-0.1-0.1-0.1c-0.1,0-0.1,0.1-0.2,0.1
			c-0.1,0.2-0.2,0.3-0.2,0.5c-0.1,0.2-0.1,0.5-0.1,0.7c0,0.7,0.1,1.4,0.4,2.1c0,0,0.1,0.1,0.1,0.1c0,0,0.1-0.1,0.1-0.1
			C11,10.6,11.1,9.9,11.1,9.4z M15.9,17.5C15.8,17.5,15.8,17.5,15.9,17.5c0.1,0.2,0.3,0.3,0.5,0.5c0.4,0.3,0.7,0.5,1.2,0.6
			c0.5,0.1,0.9,0.2,1.4,0c0.1-0.1,0.2-0.2,0-0.3c-0.2-0.1-0.4-0.3-0.6-0.4c-0.4-0.1-0.8-0.2-1.2-0.3c-0.3-0.1-0.6-0.1-0.9-0.1
			C16.1,17.5,16,17.5,15.9,17.5z"/>
	</g>
</g>
</svg>
