<svg id="Layer_1" data-name="Layer 1" xmlns="http://www.w3.org/2000/svg" viewBox="0 0 25 25"><defs><style>.cls-1{fill:#ee4b2a;}.cls-1,.cls-2{fill-rule:evenodd;}.cls-2{fill:#fff;}</style></defs><path class="cls-1" d="M12.5,0A12.5,12.5,0,1,1,0,12.5,12.5,12.5,0,0,1,12.5,0" transform="translate(0 0)"/><path class="cls-2" d="M18.83,18.05A11,11,0,0,1,4.47,9.93C4,7.51,4.17,7.34,5.63,7c.87-.2,1.7-.42,2.56-.65a.85.85,0,0,1,1,.59L10,9.72a.81.81,0,0,1-.59,1c-.66.16-1.89.11-1,1.45a8.22,8.22,0,0,0,6.4,3.7c1.6.09.91-1.06.75-1.6a.83.83,0,0,1,.59-1l2.76-.74a.83.83,0,0,1,1,.59l.3,1.13.37,1.36c.49,1.84.39,1.72-1.71,2.45" transform="translate(0 0)"/></svg>