<svg xmlns="http://www.w3.org/2000/svg" viewBox="0 0 322.5 227.1" xmlns:v="https://vecta.io/nano"><path d="M292.6 227.1H29.9C13.4 227.1 0 213.7 0 197.2V29.9C0 13.4 13.4 0 29.9 0h262.8c16.5 0 29.9 13.4 29.9 29.9v167.3c-.1 16.5-13.5 29.9-30 29.9z" fill="#0066b2"/><path d="M147.6 149.1h-16.8l10.5-64.5h16.8zm-31-64.5l-16 44.4-1.9-9.6h0l-5.7-29s-.7-5.8-8-5.8H58.6l-.3 1.1s8.1 1.7 17.6 7.4l14.6 56.1H108l26.7-64.5h-18.1zm132.2 64.5h15.4l-13.4-64.5h-13.5c-6.2 0-7.8 4.8-7.8 4.8l-25.1 59.7h17.5l3.5-9.6h21.4l2 9.6zm-18.5-22.8l8.8-24.1 5 24.1h-13.8zm-24.6-26.2l2.4-13.9s-7.4-2.8-15.1-2.8c-8.3 0-28.1 3.6-28.1 21.4 0 16.7 23.2 16.9 23.2 25.6s-20.8 7.2-27.7 1.7l-2.5 14.5s7.5 3.6 19 3.6 28.8-5.9 28.8-22.1c0-16.8-23.4-18.3-23.4-25.6-.1-7.3 16.3-6.3 23.4-2.4z" fill="#fff"/><path d="M98.7 119.4l-5.7-29s-.7-5.8-8-5.8H58.6l-.3 1.1S71 88.3 83.2 98.2c11.7 9.5 15.5 21.2 15.5 21.2z" fill="#f9a533"/></svg>